<svg width="73" height="20" viewBox="0 0 73 20" fill="none" xmlns="http://www.w3.org/2000/svg">
<path fill-rule="evenodd" clip-rule="evenodd" d="M10.0003 17.0837C10.7695 17.0837 11.6793 16.5575 12.464 15.2497C12.6935 14.8673 12.9004 14.4342 13.0779 13.9587H6.92273C7.10022 14.4342 7.30719 14.8673 7.53666 15.2497C8.32132 16.5575 9.23116 17.0837 10.0003 17.0837ZM6.54964 12.7087C6.35852 11.8802 6.25033 10.9676 6.25033 10.0003C6.25033 9.03308 6.35852 8.12042 6.54964 7.29199H13.451C13.6422 8.12042 13.7503 9.03308 13.7503 10.0003C13.7503 10.9676 13.6422 11.8802 13.451 12.7087H6.54964ZM14.4013 13.9587C14.1162 14.8377 13.7389 15.6216 13.2912 16.2744C14.3324 15.7272 15.2207 14.9283 15.8753 13.9587H14.4013ZM16.5474 12.7087H14.7303C14.9053 11.8595 15.0003 10.9484 15.0003 10.0003C15.0003 9.05224 14.9053 8.14113 14.7303 7.29199H16.5474C16.893 8.12634 17.0837 9.04108 17.0837 10.0003C17.0837 10.9596 16.893 11.8743 16.5474 12.7087ZM5.27032 12.7087H3.4532C3.10768 11.8743 2.91699 10.9596 2.91699 10.0003C2.91699 9.04108 3.10768 8.12634 3.4532 7.29199H5.27032C5.09533 8.14113 5.00033 9.05224 5.00033 10.0003C5.00033 10.9484 5.09533 11.8595 5.27032 12.7087ZM4.12535 13.9587H5.5993C5.88452 14.8377 6.26176 15.6216 6.70951 16.2744C5.66828 15.7272 4.77994 14.9283 4.12535 13.9587ZM6.92273 6.04199H13.0779C12.9004 5.56643 12.6935 5.13333 12.464 4.75089C11.6793 3.44313 10.7695 2.91699 10.0003 2.91699C9.23116 2.91699 8.32132 3.44313 7.53666 4.75089C7.30719 5.13333 7.10022 5.56643 6.92273 6.04199ZM14.4013 6.04199H15.8753C15.2207 5.07234 14.3324 4.27348 13.2912 3.72621C13.7389 4.3791 14.1162 5.16299 14.4013 6.04199ZM6.70951 3.72621C6.26176 4.37911 5.88451 5.16299 5.5993 6.04199H4.12534C4.77994 5.07234 5.66828 4.27348 6.70951 3.72621ZM10.0003 1.66699C14.6027 1.66699 18.3337 5.39795 18.3337 10.0003C18.3337 14.6027 14.6027 18.3337 10.0003 18.3337C5.39795 18.3337 1.66699 14.6027 1.66699 10.0003C1.66699 5.39795 5.39795 1.66699 10.0003 1.66699Z" fill="#212121"/>
<path d="M33.2246 13.6396V15H27.9405V13.6396H33.2246ZM28.4258 5.04688V15H26.71V5.04688H28.4258ZM32.5342 9.20312V10.543H27.9405V9.20312H32.5342ZM33.1905 5.04688V6.41406H27.9405V5.04688H33.1905ZM36.0957 9.18262V15H34.4483V7.60352H36L36.0957 9.18262ZM35.8018 11.0283L35.2686 11.0215C35.2732 10.4974 35.3461 10.0166 35.4873 9.5791C35.6332 9.1416 35.8337 8.76562 36.0889 8.45117C36.3487 8.13672 36.6586 7.89518 37.0186 7.72656C37.3786 7.55339 37.7797 7.4668 38.2217 7.4668C38.5772 7.4668 38.8985 7.51693 39.1856 7.61719C39.4773 7.71289 39.7256 7.87012 39.9307 8.08887C40.1403 8.30762 40.2998 8.59245 40.4092 8.94336C40.5186 9.28971 40.5733 9.71582 40.5733 10.2217V15H38.919V10.2148C38.919 9.85938 38.8666 9.5791 38.7618 9.37402C38.6615 9.16439 38.5134 9.01628 38.3174 8.92969C38.126 8.83854 37.8868 8.79297 37.5996 8.79297C37.3171 8.79297 37.0642 8.85221 36.8409 8.9707C36.6176 9.08919 36.4284 9.25098 36.2735 9.45605C36.1231 9.66113 36.0069 9.89811 35.9248 10.167C35.8428 10.4359 35.8018 10.723 35.8018 11.0283ZM46.9922 7.60352H48.4893V14.7949C48.4893 15.4603 48.348 16.0254 48.0655 16.4902C47.7829 16.9551 47.3887 17.3083 46.8829 17.5498C46.377 17.7959 45.7914 17.9189 45.126 17.9189C44.8435 17.9189 44.529 17.8779 44.1827 17.7959C43.8409 17.7139 43.5082 17.5817 43.1846 17.3994C42.8656 17.2217 42.599 16.987 42.3848 16.6953L43.1573 15.7246C43.4216 16.0391 43.7133 16.2692 44.0323 16.415C44.3513 16.5609 44.6862 16.6338 45.0371 16.6338C45.4154 16.6338 45.7367 16.5632 46.001 16.4219C46.2699 16.2852 46.4773 16.0824 46.6231 15.8135C46.7689 15.5446 46.8418 15.2165 46.8418 14.8291V9.27832L46.9922 7.60352ZM41.9678 11.3838V11.2402C41.9678 10.6797 42.0362 10.1693 42.1729 9.70898C42.3096 9.24414 42.5056 8.84538 42.7608 8.5127C43.016 8.17546 43.3259 7.91797 43.6905 7.74023C44.0551 7.55794 44.4675 7.4668 44.9278 7.4668C45.4063 7.4668 45.8142 7.55339 46.1514 7.72656C46.4932 7.89974 46.778 8.14811 47.0059 8.47168C47.2338 8.79069 47.4115 9.1735 47.5391 9.62012C47.6713 10.0622 47.7692 10.5544 47.833 11.0967V11.5547C47.7738 12.0833 47.6735 12.5664 47.5323 13.0039C47.391 13.4414 47.2041 13.8197 46.9717 14.1387C46.7393 14.4577 46.4522 14.7038 46.1104 14.877C45.7732 15.0501 45.3744 15.1367 44.9141 15.1367C44.4629 15.1367 44.0551 15.0433 43.6905 14.8564C43.3304 14.6696 43.0205 14.4076 42.7608 14.0703C42.5056 13.7331 42.3096 13.3366 42.1729 12.8809C42.0362 12.4206 41.9678 11.9215 41.9678 11.3838ZM43.6153 11.2402V11.3838C43.6153 11.721 43.6472 12.0355 43.711 12.3271C43.7793 12.6188 43.8819 12.8763 44.0186 13.0996C44.1599 13.3184 44.3376 13.4915 44.5518 13.6191C44.7705 13.7422 45.028 13.8037 45.3243 13.8037C45.7116 13.8037 46.0284 13.7217 46.2745 13.5576C46.5251 13.3936 46.7165 13.1725 46.8487 12.8945C46.9854 12.612 47.0811 12.2975 47.1358 11.9512V10.7139C47.1084 10.445 47.0515 10.1943 46.9649 9.96191C46.8829 9.72949 46.7712 9.52669 46.6299 9.35352C46.4886 9.17578 46.3109 9.03906 46.0967 8.94336C45.8825 8.8431 45.6296 8.79297 45.3379 8.79297C45.0417 8.79297 44.7842 8.85677 44.5655 8.98438C44.3467 9.11198 44.1667 9.28743 44.0254 9.51074C43.8887 9.73405 43.7862 9.99382 43.7178 10.29C43.6495 10.5863 43.6153 10.903 43.6153 11.2402ZM51.962 4.5V15H50.3077V4.5H51.962ZM55.5303 7.60352V15H53.876V7.60352H55.5303ZM53.7666 5.66211C53.7666 5.41146 53.8487 5.2041 54.0127 5.04004C54.1814 4.87142 54.4138 4.78711 54.71 4.78711C55.0017 4.78711 55.2318 4.87142 55.4004 5.04004C55.569 5.2041 55.6534 5.41146 55.6534 5.66211C55.6534 5.9082 55.569 6.11328 55.4004 6.27734C55.2318 6.44141 55.0017 6.52344 54.71 6.52344C54.4138 6.52344 54.1814 6.44141 54.0127 6.27734C53.8487 6.11328 53.7666 5.9082 53.7666 5.66211ZM61.4844 12.9971C61.4844 12.833 61.4434 12.6849 61.3614 12.5527C61.2793 12.416 61.1221 12.293 60.8897 12.1836C60.6618 12.0742 60.3246 11.974 59.878 11.8828C59.486 11.7962 59.126 11.6937 58.7979 11.5752C58.4743 11.4521 58.1963 11.304 57.9639 11.1309C57.7315 10.9577 57.5515 10.7526 57.4239 10.5156C57.2963 10.2786 57.2325 10.0052 57.2325 9.69531C57.2325 9.39453 57.2985 9.1097 57.4307 8.84082C57.5629 8.57194 57.752 8.33496 57.9981 8.12988C58.2442 7.9248 58.5427 7.76302 58.8936 7.64453C59.2491 7.52604 59.6455 7.4668 60.083 7.4668C60.7028 7.4668 61.2338 7.57161 61.6758 7.78125C62.1224 7.98633 62.4642 8.2666 62.7012 8.62207C62.9382 8.97298 63.0567 9.36947 63.0567 9.81152H61.4092C61.4092 9.61556 61.3591 9.43327 61.2588 9.26465C61.1631 9.09147 61.0173 8.95247 60.8213 8.84766C60.6254 8.73828 60.3793 8.68359 60.083 8.68359C59.8005 8.68359 59.5658 8.72917 59.3789 8.82031C59.1967 8.9069 59.0599 9.02083 58.9688 9.16211C58.8822 9.30339 58.8389 9.45833 58.8389 9.62695C58.8389 9.75 58.8617 9.86165 58.9073 9.96191C58.9574 10.0576 59.0394 10.1465 59.1534 10.2285C59.2673 10.306 59.4222 10.3789 59.6182 10.4473C59.8187 10.5156 60.0694 10.5817 60.3702 10.6455C60.9353 10.764 61.4206 10.9167 61.8262 11.1035C62.2364 11.2858 62.5508 11.5228 62.7696 11.8145C62.9883 12.1016 63.0977 12.4661 63.0977 12.9082C63.0977 13.2363 63.0271 13.5371 62.8858 13.8105C62.7491 14.0794 62.5485 14.3141 62.2842 14.5146C62.0199 14.7106 61.7032 14.8633 61.334 14.9727C60.9694 15.082 60.5593 15.1367 60.1036 15.1367C59.4336 15.1367 58.8662 15.0182 58.4014 14.7812C57.9366 14.5397 57.5834 14.2321 57.3418 13.8584C57.1049 13.4801 56.9864 13.0882 56.9864 12.6826H58.5791C58.5974 12.988 58.6817 13.2318 58.8321 13.4141C58.987 13.5918 59.1784 13.7217 59.4063 13.8037C59.6387 13.8812 59.878 13.9199 60.1241 13.9199C60.4203 13.9199 60.6687 13.8812 60.8692 13.8037C61.0697 13.7217 61.2224 13.6123 61.3272 13.4756C61.432 13.3343 61.4844 13.1748 61.4844 12.9971ZM66.167 4.5V15H64.5264V4.5H66.167ZM65.8799 11.0283L65.3467 11.0215C65.3513 10.5111 65.4219 10.0394 65.5586 9.60645C65.6999 9.1735 65.8959 8.79753 66.1465 8.47852C66.4017 8.15495 66.7071 7.90658 67.0625 7.7334C67.418 7.55566 67.8122 7.4668 68.2452 7.4668C68.6097 7.4668 68.9379 7.51693 69.2295 7.61719C69.5258 7.71745 69.781 7.87923 69.9952 8.10254C70.2093 8.32129 70.3711 8.6084 70.4805 8.96387C70.5944 9.31478 70.6514 9.74316 70.6514 10.249V15H68.9971V10.2354C68.9971 9.87988 68.9447 9.59733 68.8399 9.3877C68.7396 9.17806 68.5915 9.02767 68.3955 8.93652C68.1996 8.84082 67.9603 8.79297 67.6778 8.79297C67.3815 8.79297 67.1195 8.85221 66.8916 8.9707C66.6683 9.08919 66.4815 9.25098 66.3311 9.45605C66.1807 9.66113 66.0668 9.89811 65.9893 10.167C65.9164 10.4359 65.8799 10.723 65.8799 11.0283Z" fill="#212121"/>
</svg>
